<svg width="504" height="240" viewBox="0 0 504 240" fill="none" xmlns="http://www.w3.org/2000/svg">
<g opacity="0.5">
<path d="M479.451 239.295L446.4 239.274L437.899 239.269L424.126 239.261L415.627 239.256L174.993 239.111L157.288 239.1L88.0787 239.058L73.8906 239.047L29.0621 239.021C29.0621 239.021 8.2123 189.589 38.3667 130.395C44.9203 117.531 47.7767 105.727 48.7201 94.6386C49.1351 89.7817 49.1827 85.062 49.0108 80.4508C48.2895 60.8084 53.8548 44.9373 65.1648 32.7286C66.5548 31.2276 68.0321 29.7824 69.5965 28.3921C76.8742 21.9179 86.0095 16.6405 96.9048 12.5368C138.686 -3.19972 161.965 33.1488 274.485 18.8791C366.317 7.23323 364.7 -6.65871 431.454 3.5522C453.149 6.86867 467.583 16.144 474.234 28.3923C475.003 29.8008 475.664 31.2464 476.224 32.7288C477.231 35.4003 477.902 38.1883 478.232 41.0611C478.901 46.8482 479.125 52.7808 479.025 58.7663C478.713 78.0808 475.056 97.9846 472.067 115.658C471.581 118.525 471.113 121.334 470.682 124.072C469.676 130.435 468.859 136.418 468.444 141.864C468.214 144.869 468.108 147.71 468.164 150.366C468.251 154.858 468.793 158.814 469.969 162.107C481.277 193.817 486.649 221.342 479.451 239.295Z" fill="#D2E0FF"/>
</g>
<path d="M317.595 169.828H305.173V167.714H317.595C322.269 167.714 326.072 163.912 326.072 159.238V140.178H328.186V159.238C328.186 165.078 323.435 169.828 317.595 169.828Z" fill="#FFF1E7"/>
<path d="M324.342 175.773H303.337V173.659H324.342C328.691 173.659 332.229 170.121 332.229 165.773V137.94H334.343V165.773C334.343 171.287 329.856 175.773 324.342 175.773Z" fill="#8C9DF4"/>
<path d="M307.259 49.9141H301.099V239.294H307.259V49.9141Z" fill="#8C9DF4"/>
<path d="M479.02 58.766H204.901C188.406 58.766 174.987 72.1876 174.987 88.6799V239.296H157.282V88.6799C157.282 62.4235 178.645 41.061 204.901 41.061H478.227C478.896 46.848 479.12 52.7808 479.02 58.766Z" fill="#8C9DF4"/>
<path d="M468.165 150.365H461.223C453.049 150.365 446.401 157.014 446.401 165.19V239.295H437.899V165.19C437.899 152.328 448.364 141.864 461.223 141.864H468.445C468.215 144.868 468.109 147.709 468.165 150.365Z" fill="#8C9DF4"/>
<path d="M472.062 115.658C471.576 118.525 471.108 121.334 470.677 124.072H438.945C431.773 124.072 424.121 125.636 424.121 144.311V239.295H415.622V144.311C415.622 125.031 423.251 115.658 438.945 115.658H472.062Z" fill="#8C9DF4"/>
<path d="M88.0781 118.607V239.295H73.89V118.607C73.89 105.391 63.1374 94.6385 49.9194 94.6385H48.7197C49.1346 89.7816 49.1823 85.0619 49.0104 80.4507H49.9196C70.9593 80.4509 88.0781 97.5667 88.0781 118.607Z" fill="#8B9DF4"/>
<path d="M280.146 117.694H227.806V238.493H280.146V117.694Z" fill="#D2E0FF"/>
<path d="M199.272 238.358H188.024V182.297C188.024 167.978 199.674 156.328 213.993 156.328H245.525V167.576H213.993C205.876 167.576 199.272 174.18 199.272 182.297V238.358Z" fill="#D2E0FF"/>
<path d="M91.1537 184.908C91.0368 184.701 90.913 184.5 90.7852 184.299C90.2307 183.438 89.5852 182.658 88.8666 181.972C87.1596 180.327 85.0255 179.189 82.6511 178.675C81.7392 178.478 80.8199 178.383 79.908 178.383C79.5543 178.383 79.2005 178.397 78.8503 178.427C76.7601 178.598 74.732 179.284 72.9191 180.455C72.2224 180.903 71.5804 181.411 70.9932 181.972C69.1367 183.741 67.849 186.025 67.2984 188.589C66.5725 191.963 67.2035 195.417 69.0747 198.317C69.6293 199.174 70.2748 199.955 70.9932 200.644C72.7003 202.289 74.8343 203.431 77.2089 203.942C78.1245 204.139 79.0436 204.237 79.9555 204.237C82.4141 204.237 84.8251 203.53 86.9407 202.165C87.6374 201.717 88.2794 201.21 88.8666 200.648C90.7232 198.879 92.0108 196.592 92.5616 194.028C93.2363 190.887 92.7366 187.677 91.1537 184.908ZM90.1798 193.517C89.928 194.695 89.4794 195.804 88.8666 196.803C88.4509 197.478 87.9621 198.105 87.4003 198.67C86.8678 199.21 86.2697 199.696 85.6164 200.119C85.5766 200.144 85.5363 200.17 85.4963 200.192C83.1689 201.654 80.4153 202.14 77.723 201.559C76.6726 201.333 75.6767 200.954 74.7648 200.436C74.0536 200.039 73.3933 199.557 72.795 198.999C72.1641 198.411 71.6022 197.74 71.1209 196.996C71.077 196.927 71.0334 196.858 70.9932 196.788C69.5744 194.479 69.1076 191.759 69.6802 189.103C69.7932 188.571 69.9464 188.049 70.1396 187.549C70.3697 186.94 70.6578 186.36 70.9932 185.813C71.0809 185.671 71.1721 185.532 71.2668 185.393C71.2779 185.375 71.2887 185.361 71.2996 185.342C72.0731 184.226 73.0651 183.259 74.2434 182.501C75.5457 181.658 76.9828 181.126 78.4745 180.918C78.6681 180.892 78.8649 180.87 79.0618 180.852C79.3428 180.83 79.6238 180.819 79.9082 180.819C80.2403 180.819 80.5759 180.834 80.9113 180.867C81.32 180.907 81.7283 180.972 82.137 181.06C83.0234 181.25 83.8698 181.549 84.661 181.946C84.6647 181.95 84.672 181.95 84.6755 181.954C85.9596 182.603 87.0976 183.511 88.0167 184.638C88.2139 184.872 88.3925 185.112 88.5603 185.361C88.6261 185.444 88.6807 185.532 88.7392 185.619C88.7832 185.689 88.8267 185.758 88.8668 185.827C89.0418 186.108 89.1987 186.393 89.3408 186.684C90.3839 188.797 90.683 191.179 90.1798 193.517Z" fill="#2B478B"/>
<path d="M80.0044 192.718L69.0088 186.951L70.1406 184.794L79.8773 189.9L89.1123 183.937L90.4337 185.984L80.0044 192.718Z" fill="#2B478B"/>
<path d="M74.2528 201.157L72.2861 199.719L78.7202 190.923L78.4627 179.635L80.8986 179.58L81.1749 191.695L74.2528 201.157Z" fill="#2B478B"/>
<path d="M80.8935 190.538L78.9932 192.063L86.319 201.192L88.2194 199.667L80.8935 190.538Z" fill="#2B478B"/>
<path d="M77.5986 191.31C77.5986 190.017 78.6466 188.969 79.9388 188.969C81.2311 188.969 82.2789 190.017 82.2789 191.31C82.2789 192.602 81.2311 193.65 79.9388 193.65C78.6466 193.65 77.5986 192.602 77.5986 191.31Z" fill="#2B478B"/>
<path d="M427.772 189.013C427.677 188.843 427.575 188.678 427.471 188.514C427.017 187.81 426.489 187.172 425.902 186.611C424.505 185.265 422.76 184.335 420.818 183.914C420.072 183.753 419.32 183.675 418.574 183.675C418.285 183.675 417.995 183.687 417.709 183.711C416 183.851 414.341 184.412 412.858 185.37C412.288 185.737 411.763 186.152 411.283 186.611C409.764 188.058 408.711 189.926 408.26 192.023C407.667 194.782 408.183 197.608 409.714 199.98C410.167 200.681 410.695 201.319 411.283 201.883C412.679 203.228 414.424 204.162 416.367 204.58C417.116 204.741 417.868 204.822 418.613 204.822C420.624 204.822 422.596 204.243 424.326 203.127C424.896 202.76 425.421 202.345 425.902 201.886C427.42 200.439 428.474 198.568 428.924 196.471C429.476 193.903 429.067 191.277 427.772 189.013ZM426.976 196.053C426.769 197.017 426.403 197.924 425.902 198.741C425.561 199.293 425.161 199.807 424.702 200.269C424.267 200.71 423.777 201.107 423.243 201.453C423.211 201.474 423.178 201.495 423.145 201.513C421.241 202.709 418.989 203.106 416.787 202.632C415.928 202.447 415.114 202.137 414.368 201.713C413.786 201.388 413.246 200.994 412.757 200.537C412.241 200.057 411.781 199.508 411.388 198.9C411.352 198.843 411.316 198.786 411.283 198.73C410.122 196.841 409.741 194.616 410.209 192.443C410.302 192.008 410.427 191.581 410.585 191.172C410.773 190.674 411.009 190.2 411.283 189.753C411.355 189.636 411.43 189.523 411.507 189.409C411.516 189.394 411.525 189.382 411.534 189.367C412.166 188.454 412.978 187.664 413.941 187.043C415.007 186.354 416.182 185.919 417.402 185.749C417.56 185.728 417.721 185.71 417.883 185.695C418.112 185.677 418.342 185.668 418.575 185.668C418.846 185.668 419.121 185.68 419.395 185.707C419.729 185.74 420.064 185.793 420.398 185.865C421.123 186.02 421.815 186.265 422.462 186.59C422.465 186.593 422.471 186.593 422.474 186.596C423.524 187.127 424.455 187.87 425.207 188.792C425.368 188.982 425.514 189.18 425.652 189.382C425.705 189.451 425.75 189.523 425.798 189.594C425.834 189.651 425.869 189.707 425.902 189.764C426.045 189.994 426.174 190.227 426.29 190.465C427.143 192.193 427.387 194.141 426.976 196.053Z" fill="#2B478B"/>
<path d="M418.654 195.4L409.661 190.683L410.587 188.919L418.55 193.095L426.104 188.218L427.185 189.892L418.654 195.4Z" fill="#2B478B"/>
<path d="M413.941 202.302L412.333 201.126L417.595 193.932L417.385 184.699L419.377 184.654L419.603 194.563L413.941 202.302Z" fill="#2B478B"/>
<path d="M419.372 193.601L417.818 194.848L423.81 202.315L425.364 201.068L419.372 193.601Z" fill="#2B478B"/>
<path d="M416.665 194.248C416.665 193.19 417.522 192.334 418.579 192.334C419.636 192.334 420.493 193.19 420.493 194.248C420.493 195.305 419.636 196.162 418.579 196.162C417.522 196.162 416.665 195.305 416.665 194.248Z" fill="#2B478B"/>
<path d="M201.012 222.51H186.274V239.294H201.012V222.51Z" fill="#AEC3FF"/>
<path d="M286.634 40.0195H280.399V60.3671H286.634V40.0195Z" fill="#2B478B"/>
<path d="M360.251 40.0195H354.017V60.3671H360.251V40.0195Z" fill="#2B478B"/>
<path d="M274.482 40.0195H268.247V60.3671H274.482V40.0195Z" fill="#2B478B"/>
<path d="M176.516 154.488V148.253H156.169V154.488H176.516Z" fill="#2B478B"/>
<path d="M176.516 88.2944V82.0601H156.169V88.2944H176.516Z" fill="#2B478B"/>
<path d="M425.71 219.117H413.853V238.53H425.71V219.117Z" fill="#2B478B"/>
<path d="M448.057 219.117H436.2V238.53H448.057V219.117Z" fill="#2B478B"/>
<path d="M157.681 116.66C157.681 116.66 159.223 114.036 160.447 113.063C161.671 112.091 164.903 111.82 165.029 112.069C165.417 112.839 163.747 113.949 163.4 114.657C163.053 115.363 163.202 116.381 161.557 117.213C159.859 118.073 158.873 118.637 158.873 118.637L157.681 116.66Z" fill="#FFF5ED"/>
<path d="M158.99 116.302C158.197 115.068 157.96 115.004 157.96 115.004C157.96 115.004 146.123 122.468 144.872 122.905C143.62 123.341 131.32 120.908 131.32 120.908L127.048 128.237C127.048 128.237 143.308 130.832 146.457 129.663C151.662 127.732 159.622 118.268 159.622 118.268C159.622 118.268 159.613 117.272 158.99 116.302Z" fill="#233862"/>
<path d="M162.399 115.243C162.399 115.243 164.728 113.815 164.837 114.428C164.891 114.732 163.856 115.568 163.44 115.925C163.024 116.282 161.962 116.983 161.962 116.983L162.399 115.243Z" fill="#FFF5ED"/>
<path d="M178.728 105.247C176.49 102.141 173.33 100.082 169.888 99.1739C166.72 98.3342 163.315 98.471 160.166 99.661C158.887 100.144 157.65 100.803 156.489 101.64C149.363 106.776 147.746 116.752 152.882 123.878C155.12 126.982 158.279 129.042 161.719 129.95C163.323 130.375 164.985 130.55 166.645 130.465C168.266 130.382 169.885 130.05 171.442 129.461C172.312 129.134 173.163 128.724 173.983 128.233C174.163 128.126 174.34 128.015 174.515 127.899C174.719 127.767 174.92 127.627 175.12 127.484C175.523 127.193 175.909 126.886 176.276 126.565C177.244 125.726 178.085 124.787 178.799 123.776C182.626 118.374 182.81 110.91 178.728 105.247ZM178.564 116.631C178.227 118.707 177.41 120.628 176.187 122.269C175.962 122.575 175.721 122.87 175.467 123.155C175.166 123.491 174.848 123.811 174.51 124.117C174.476 124.151 174.441 124.181 174.405 124.212C174.074 124.506 173.726 124.784 173.364 125.047C173.316 125.082 173.268 125.116 173.22 125.15C173.17 125.185 173.12 125.219 173.07 125.253C172.966 125.324 172.86 125.394 172.754 125.46C172.752 125.463 172.751 125.465 172.747 125.465C172.335 125.728 171.911 125.965 171.48 126.176C171.412 126.21 171.346 126.241 171.278 126.272C171.099 126.357 170.919 126.436 170.738 126.511C167.775 127.735 164.499 127.784 161.556 126.763C161.033 126.583 160.521 126.369 160.023 126.119C159.133 125.676 158.289 125.128 157.51 124.474C156.701 123.801 155.963 123.014 155.318 122.12C152.816 118.647 152.289 114.344 153.521 110.555C153.829 109.606 154.247 108.689 154.774 107.827C155.641 106.396 156.805 105.115 158.246 104.076C158.907 103.598 159.604 103.189 160.329 102.847C161.298 102.392 162.314 102.063 163.356 101.862C163.935 101.751 164.522 101.679 165.115 101.649C165.526 101.628 165.938 101.626 166.351 101.645C166.857 101.667 167.367 101.718 167.875 101.802C168.623 101.922 169.348 102.106 170.051 102.348C172.078 103.05 173.89 104.24 175.34 105.835C175.677 106.204 175.994 106.593 176.29 107.004C176.585 107.414 176.855 107.838 177.099 108.273C178.516 110.806 179.035 113.722 178.564 116.631Z" fill="#2B478B"/>
<path d="M165.985 116.293L152.083 109.888L153.34 107.16L165.65 112.831L176.643 104.906L178.399 107.343L165.985 116.293Z" fill="#2B478B"/>
<path d="M159.423 127.046L156.911 125.399L164.277 114.165L163.247 100.283L166.242 100.061L167.348 114.959L159.423 127.046Z" fill="#2B478B"/>
<path d="M166.924 113.556L164.681 115.554L174.276 126.33L176.519 124.332L166.924 113.556Z" fill="#2B478B"/>
<path d="M162.923 114.71C162.841 113.119 164.065 111.762 165.656 111.681C167.247 111.599 168.604 112.823 168.685 114.414C168.767 116.005 167.543 117.361 165.952 117.443C164.361 117.525 163.005 116.301 162.923 114.71Z" fill="#2B478B"/>
<path d="M163.414 131.74L145.808 152.458C145.167 153.212 144.035 153.304 143.281 152.663C142.779 152.237 142.718 151.484 143.144 150.982L161.237 129.691C161.605 129.259 162.254 129.206 162.686 129.573L163.279 130.078C163.775 130.499 163.836 131.244 163.414 131.74Z" fill="#FFF1E7"/>
<path d="M167.09 124.005L165.144 121.556C164.308 120.503 162.741 120.435 161.908 121.415L154.095 130.608C153.684 131.093 153.743 131.819 154.227 132.231L157.069 134.647L161.294 129.675L159.58 128.219L162.113 125.238C163.018 124.173 164.733 124.29 165.585 125.475L166.578 126.853L167.093 126.248C167.628 125.618 167.627 124.681 167.09 124.005Z" fill="#FFF1E7"/>
<path d="M156.79 132.394C156.617 132.247 156.596 131.987 156.744 131.814C156.891 131.641 157.15 131.62 157.323 131.767C157.496 131.914 157.517 132.174 157.37 132.347C157.223 132.52 156.964 132.541 156.79 132.394Z" fill="#2A4E96"/>
<path d="M158.502 130.388C158.328 130.241 158.307 129.982 158.454 129.809C158.602 129.635 158.861 129.614 159.034 129.762C159.207 129.909 159.228 130.168 159.081 130.341C158.934 130.514 158.674 130.535 158.502 130.388Z" fill="#2A4E96"/>
<path d="M126.403 232.354C126.403 232.354 126.689 236.958 127.544 238.04H140.699C140.616 237.581 140.243 236.448 138.598 236.161C136.52 235.799 133.04 234.339 131.782 231.591C130.457 228.701 126.403 232.354 126.403 232.354Z" fill="#163560"/>
<path d="M103.059 231.712C103.059 231.712 102.092 238.1 103.218 238.204C103.368 238.218 108.27 238.153 110.169 238.142C112.535 238.129 116.502 238.04 116.502 238.04C116.991 238.061 117.22 237.301 116.971 236.88C116.698 236.418 116.177 235.925 115.184 235.733C113.113 235.335 109.66 233.813 108.45 231.044C107.176 228.132 103.059 231.712 103.059 231.712Z" fill="#163560"/>
<path d="M132.582 171.086C132.582 171.086 129.274 182.66 119.794 202.76C110.314 222.86 109.582 232.019 109.582 232.019L103.052 231.712C103.052 231.712 103.666 207.788 108.144 197.645C112.622 187.502 113.534 159.746 113.534 159.746L132.582 171.086Z" fill="#4480F2"/>
<path d="M137.895 161.127C137.895 161.127 138.158 179.049 135.057 201.055C131.956 223.061 133.008 232.402 133.008 232.402L125.581 232.649C125.581 232.649 121.142 210.635 122.415 199.621C123.688 188.606 116.337 161.825 116.337 161.825L137.895 161.127Z" fill="#78A0ED"/>
<path d="M123.243 119.186L126.746 121.78L131.809 120.715C131.739 120.253 131.405 118.339 131.1 116.606C131.082 116.504 131.063 116.402 131.046 116.302C130.785 114.827 130.56 113.56 130.56 113.56L125.832 111.204L124.069 110.325C124.074 110.356 124.206 111.962 124.224 112.196C124.555 116.358 123.243 119.186 123.243 119.186Z" fill="#FFF5ED"/>
<path d="M131.448 117.877C131.337 117.83 124.561 115.831 123.825 116.074C123.089 116.317 122.653 117.741 122.653 117.741L133.114 120.721C133.114 120.721 132.864 118.473 131.448 117.877Z" fill="#163560"/>
<path d="M113.214 163.339C114.361 168.578 138.306 152.139 137.987 148.942C137.952 148.591 137.917 148.237 137.882 147.886C137.44 143.434 137.016 139.078 136.987 136.235C136.963 133.769 136.624 131.248 136.17 128.957C135.755 126.843 135.243 124.924 134.799 123.429C134.486 122.376 133.901 121.449 133.125 120.72C132.576 120.203 131.929 119.787 131.216 119.503C131.022 119.421 130.823 119.354 130.622 119.296C127.737 118.459 123.747 117.423 122.665 117.74C119.734 118.603 117.558 123.76 116.017 130.335C113.133 142.644 112.465 159.926 113.214 163.339Z" fill="#2A4E96"/>
<path d="M124.57 112.27C125.608 114.257 129.477 115.975 131.091 116.607C131.073 116.505 131.054 116.402 131.037 116.302C130.776 114.828 130.551 113.561 130.551 113.561L125.823 111.204C124.777 111.188 124.141 111.452 124.57 112.27Z" fill="#FCA56B"/>
<path d="M132.854 113.284C132.854 113.284 124.324 115.945 122.749 110.607C121.173 105.269 119.011 102.018 124.391 100.093C129.771 98.1684 131.435 99.8915 132.394 101.545C133.354 103.199 135.033 112.454 132.854 113.284Z" fill="#FFF5ED"/>
<path d="M132.068 101.031C132.068 101.031 131.524 107.243 130.239 106.973C128.955 106.703 127.79 106.503 127.977 108.376C128.166 110.248 129.947 112.41 125.988 112.742C122.029 113.073 116.338 102.863 117.426 100.93C120.564 95.3525 136.603 94.2271 132.068 101.031Z" fill="#163560"/>
<path d="M137.254 161.127C134.882 161.984 137.295 158.77 137.254 158.101C137.07 155.155 138.225 151.431 137.871 147.886L123.388 139.229C123.388 139.229 119.952 160.989 137.254 161.127Z" fill="#233862"/>
<path d="M113.203 163.339C119.386 174.798 120.371 179.174 120.371 179.174C125.752 178.56 134.973 167.981 137.898 165.157C137.898 165.157 138.295 152.139 137.976 148.942L133.507 148.813C133.507 148.813 125.427 150.861 123.333 148.082C121.239 145.303 122.145 131.663 122.145 131.663L116.006 130.335C113.122 142.644 111.544 160.264 113.203 163.339Z" fill="#78A0ED"/>
<path d="M148.481 141.419C148.481 141.419 150.247 141.074 150.707 140.697C151.386 140.139 151.92 139.203 152.253 139.1C152.811 138.926 154.182 137.204 154.297 137.082C154.342 137.034 154.712 137.214 154.622 137.497C154.531 137.783 154.326 138.399 154.252 138.622C153.928 139.6 153.944 139.903 155.115 139.523C155.266 139.474 157.972 138.615 158.249 139.229C158.527 139.842 157.406 142.797 155.995 143.434C154.583 144.071 151.098 143.496 150.847 143.568C148.716 144.188 148.481 141.419 148.481 141.419Z" fill="#FFF5ED"/>
<path d="M149.921 140.843C149.921 140.843 135.557 143.285 134.284 142.666C132.253 141.676 135.073 127.102 135.073 127.102C135.073 127.102 135.194 123.8 131.336 123.021C127.983 122.344 124.749 124.855 124.749 124.855C124.749 124.855 121.807 127.487 122.183 130.407C123.016 136.879 124.312 150.042 128.64 152.06C134.224 154.662 150.379 144.843 150.379 144.843C150.379 144.843 150.917 144.184 150.841 142.961C150.773 141.882 149.921 140.843 149.921 140.843Z" fill="#2A4E96"/>
<path d="M120.958 131.406L122.148 131.663C122.148 131.663 124.664 120.774 133.118 120.721C132.568 120.203 131.921 119.788 131.208 119.504C128.11 120.335 122.731 122.982 120.958 131.406Z" fill="#78A0ED"/>
<path d="M89.5253 228.302H72.8057V238.039H89.5253V228.302Z" fill="#2B478B"/>
<path d="M175.693 228.302H155.829V238.039H175.693V228.302Z" fill="#2B478B"/>
<path d="M345.865 93.9508H316.931V152.498H345.865V93.9508Z" fill="#D2E0FF"/>
<path d="M341.351 98.7057H321.532V108.99H341.351V98.7057Z" fill="#AEC3FF"/>
<path d="M335.486 227.68C335.486 227.68 333.25 229.753 333.686 231.225C334.123 232.698 336.141 233.68 336.413 235.48C336.686 237.279 337.777 238.261 338.759 238.261C339.741 238.261 343.439 238.261 343.439 238.261C343.439 238.261 344.162 236.995 342.416 236.613C340.671 236.231 340.013 234.116 340.122 232.153C340.231 230.189 339.959 227.571 339.959 227.571L336.25 226.698L335.486 227.68Z" fill="#2C3A64"/>
<path d="M362.924 232.978C362.924 232.978 362.403 237.695 363.385 238.185H376.046C376.046 238.185 376.069 236.687 374.051 236.36C372.033 236.032 368.488 234.832 367.888 232.16C367.288 229.487 362.924 232.978 362.924 232.978Z" fill="#2C3A64"/>
<path d="M373.524 165.951C373.524 165.951 372.862 174.218 372.083 184.157C371.024 197.658 369.751 214.241 369.625 217.383C369.407 222.838 368.534 231.564 368.534 231.564C368.534 231.564 366.462 233.637 362.316 232.764C362.316 232.764 358.621 220.307 357.566 207.127C357.55 206.911 357.533 206.693 357.517 206.475C356.535 193.058 355.009 164.805 355.009 164.805L373.524 165.951Z" fill="#35488B"/>
<path d="M373.524 165.951C373.524 165.951 372.862 174.218 372.083 184.157L357.566 207.127C357.55 206.911 357.533 206.693 357.517 206.475C356.535 193.058 355.009 164.805 355.009 164.805L373.524 165.951Z" fill="#2C3A64"/>
<path d="M370.496 166.931C370.496 166.931 369.882 168.47 368.843 171.014C366.416 176.941 361.669 188.331 356.969 198.423C354.791 203.101 352.622 207.499 350.698 210.946C342.844 225.02 340.389 228.946 340.389 228.946C340.389 228.946 340.276 228.901 340.087 228.82C339.272 228.477 337.014 227.479 335.982 226.563C335.73 226.34 335.551 226.122 335.481 225.918C335.481 225.918 338.484 198.754 343.745 192.131C346.717 188.388 350.208 177.159 350.371 173.234C350.444 171.502 350.661 169.025 350.878 166.793C351.073 164.778 351.275 162.965 351.372 162.09C351.413 161.734 351.435 161.533 351.435 161.533L365.227 165.439L370.496 166.931Z" fill="#35488B"/>
<path d="M367.684 170.782C361.507 170.46 358.762 169.773 355.226 168.907C353.098 168.387 351.694 167.293 350.872 166.792C351.067 164.777 351.269 162.964 351.366 162.089L356.913 164.925L367.684 170.782Z" fill="#2C3A64"/>
<path d="M403.011 150.9C403.011 150.9 406.204 150.905 406.703 151.083C407.202 151.261 409.878 154.311 409.762 155.006C409.645 155.701 407.773 156.547 406.407 156.269C405.041 155.991 402.791 153.442 402.569 153.358C400.686 152.641 403.011 150.9 403.011 150.9Z" fill="#D2E0FF"/>
<path d="M404.135 153.895C404.889 152.54 404.528 150.551 404.528 150.551C404.528 150.551 394.83 142.696 393.798 141.748C392.765 140.8 382.393 123.911 382.393 123.911L368.005 124.849C368.005 124.849 385.761 145.246 388.424 147.598C392.824 151.483 404.046 155.485 404.046 155.485C404.046 155.485 403.543 154.96 404.135 153.895Z" fill="#92B5F7"/>
<path d="M375.747 119.792C375.747 119.792 380.621 128.367 385.384 129.486C385.384 129.486 385.239 127.38 384.472 125.537C384.227 124.949 384.337 124.271 384.739 123.776C384.932 123.54 385.112 123.314 385.279 123.1C386.478 121.564 387.049 120.623 387.049 120.623L385.432 116.277L384.335 113.328C383.808 114.285 383.227 115.1 382.621 115.798C379.498 119.387 375.747 119.792 375.747 119.792Z" fill="#FFF5ED"/>
<path d="M382.624 115.798C382.624 115.798 382.042 120.095 385.282 123.1C386.481 121.564 387.051 120.623 387.051 120.623L385.435 116.277C383.701 115.749 382.624 115.798 382.624 115.798Z" fill="#D2E0FF"/>
<path d="M388.332 121.257C388.332 121.257 381.05 118.418 382.888 113.911C384.726 109.403 385.023 106.001 389.75 107.623C394.477 109.245 394.674 111.331 394.426 112.984C394.179 114.638 390.274 121.879 388.332 121.257Z" fill="#FFF5ED"/>
<path d="M384.178 140.345C383.388 142.631 382.349 144.973 381.134 147.186C380.895 147.624 380.662 148.055 380.442 148.483C380.294 148.766 380.152 149.05 380.014 149.33C377.357 154.688 376.132 159.331 375.603 162.979C375.502 163.681 375.424 164.345 375.37 164.972C375.131 167.648 350.105 158.934 350.911 155.191C351.442 152.726 352.17 150.135 352.85 147.929C353.842 144.696 354.729 142.284 354.729 142.284C359.41 131.144 366.056 125.147 371.231 121.98C372.169 121.404 373.057 120.922 373.878 120.523C377.023 118.98 379.163 118.596 379.163 118.596C379.163 118.596 380.234 123.947 384.824 126.069C384.83 126.085 385.541 128.975 385.544 128.987C386.313 131.739 385.702 135.948 384.178 140.345Z" fill="#9DBBF3"/>
<path d="M381.842 105.537C381.791 105.437 381.643 105.329 381.281 105.218C381.281 105.218 381.62 105.104 382.015 105.191C382.219 104.692 382.716 103.843 383.648 103.836C383.648 103.836 383.113 103.975 382.916 104.51C384.193 103.701 386.561 103.466 392.471 105.434C400.261 108.029 396.369 112.551 395.189 112.913C394.008 113.276 391.835 110.949 389.88 110.632C387.925 110.314 386.868 113.037 386.122 113.263C385.377 113.489 385.801 112.869 385.021 112.249C384.24 111.628 383.792 113.088 383.809 114.113C383.826 115.138 382.305 116.11 382.305 116.11C382.305 116.11 382.305 116.11 381.412 114.473C380.52 112.836 380.762 106.894 381.615 105.824C381.69 105.73 381.765 105.634 381.842 105.537Z" fill="#2B478B"/>
<path d="M368.751 136.278C368.751 136.278 369.59 142.622 372.423 147.422C375.256 152.223 376.511 144.751 376.511 144.751L368.751 136.278Z" fill="#ADC7F7"/>
<path d="M380.018 149.33C377.361 154.688 376.136 159.331 375.608 162.98C375.507 163.681 375.428 164.346 375.375 164.972C375.135 167.648 375.271 169.618 375.372 170.739C375.63 173.66 353.669 168.019 350.732 163.795C349.117 161.469 351.145 153.486 352.854 147.929C353.14 147.998 366.756 151.238 376.174 142.814L380.018 149.33Z" fill="#35488B"/>
<path d="M381.685 134.253L380.33 131.547C380.333 131.5 380.478 126.772 377.642 123.998C376.111 122.5 373.958 121.823 371.235 121.981C372.173 121.404 373.061 120.923 373.883 120.523C375.828 120.822 377.455 121.612 378.749 122.881C382.083 126.149 381.695 134.033 381.685 134.253Z" fill="#2C3A64"/>
<path d="M412.106 145.411V160.521H424.253V145.411H412.106Z" fill="#233862"/>
<path d="M410.247 151.196V154.737H412.529V151.196H410.247Z" fill="#233862"/>
<path d="M408.864 152.494V153.438H410.254V152.494H408.864Z" fill="#233862"/>
<path d="M408.021 147.588V158.344H408.86V147.588H408.021Z" fill="#233862"/>
<path d="M400.414 152.881C400.414 152.881 404.685 152.115 405.394 152.197C406.103 152.28 408.541 153.438 408.564 153.641C408.587 153.844 408.462 154.003 408.031 154.012C407.6 154.02 406.193 153.771 406.275 153.947C406.357 154.123 410.393 155.117 410.4 155.939C410.406 156.761 408.101 158.179 406.21 158.192C404.319 158.205 400.714 155.838 400.397 155.795C397.712 155.432 400.414 152.881 400.414 152.881Z" fill="#FFF5ED"/>
<path d="M401.209 154.621C401.293 153.778 400.409 152.881 400.409 152.881C400.409 152.881 387.733 149.393 386.684 148.335C385.634 147.276 380.775 130.418 380.775 130.418C380.775 130.418 379.102 123.596 375.185 122.843C371.781 122.19 369.429 123.874 367.889 125.848C366.055 128.2 365.875 131.445 367.397 134.011C370.815 139.769 377.709 151.2 379.722 153.153C384.202 157.499 400.391 156.603 400.391 156.603C400.391 156.603 401.041 156.314 401.209 154.621Z" fill="#BCD1F9"/>
<path d="M243.366 113.908H240.579V117.695H243.366V113.908Z" fill="#2B478B"/>
<path d="M210.981 195.098C212.487 194.591 216.656 191.305 216.901 191.196C218.978 190.267 214.371 189.82 214.371 189.82C214.371 189.82 211.026 189.493 209.544 190.562C209.544 190.562 208.634 192.706 208.824 193.369C209.014 194.035 210.241 195.347 210.981 195.098Z" fill="#FFF5ED"/>
<path d="M214.116 191.554C213.448 190.025 213.862 188.839 213.862 188.839C213.862 188.839 226.841 185.281 228.119 184.48C232.193 181.928 237.878 165.395 237.878 165.395C237.878 165.395 240.536 158.801 244.568 158.612C248.072 158.447 250.186 160.473 251.444 162.672C252.943 165.293 252.656 168.569 250.761 170.92C246.508 176.196 236.05 189.348 233.763 191.029C230.243 193.615 215.561 193.179 215.561 193.179C215.561 193.179 214.641 192.756 214.116 191.554Z" fill="#BCD1F9"/>
<path d="M222.499 207.315C224.579 210.228 229.636 211.648 239.181 212.09C239.948 212.127 240.719 212.156 241.493 212.18C242.291 212.204 243.09 212.221 243.888 212.232C246.483 212.268 249.064 212.238 251.524 212.155C253.909 212.073 256.18 211.943 258.238 211.772C262.264 211.437 265.477 210.95 267.137 210.392C267.634 210.225 267.992 210.052 268.191 209.873C268.361 209.722 268.499 209.543 268.603 209.34C269.206 208.223 268.891 206.394 268.164 204.377C267.103 201.441 265.157 198.112 263.847 196.029C263.584 195.613 263.35 195.249 263.151 194.945C262.752 194.333 262.503 193.976 262.503 193.976C262.503 193.976 258.045 194.39 251.94 195.181C250.695 195.341 249.38 195.52 248.022 195.712C234.897 197.567 221.82 200.904 221.833 205.33C221.834 206.004 221.955 206.553 222.499 207.315Z" fill="#2B478B"/>
<path d="M238.61 212.036C239.408 212.061 243.106 212.22 243.905 212.231C246.499 212.268 249.08 212.237 251.54 212.155L253.853 202.834C250.276 207.825 239.76 211.715 238.61 212.036Z" fill="#2C3A64"/>
<path d="M246.322 238.38H233.599C233.799 237.896 234.284 237.264 235.465 237.058C237.469 236.706 240.948 235.622 240.502 232.729C240.05 229.798 244.93 229.42 244.93 229.42C244.93 229.42 246.961 237.264 246.322 238.38Z" fill="#1D2C51"/>
<path d="M222.149 206.717C222.149 206.717 237.933 231.548 239.246 234.499C239.246 234.499 244.616 234.999 245.908 231.162C245.908 231.162 236.526 204.958 232.402 202.799C228.279 200.639 222.149 206.717 222.149 206.717Z" fill="#2B478B"/>
<path d="M246.826 157.216C246.826 157.216 242.621 165.413 237.898 166.563C237.898 166.563 237.996 164.953 238.524 163.318C238.863 162.27 238.674 161.124 237.986 160.263C237.974 160.248 237.962 160.233 237.951 160.219C236.747 158.702 236.173 157.772 236.173 157.772L237.744 153.442L237.859 151.229C238.391 152.176 238.973 153.034 239.58 153.722C242.711 157.262 246.826 157.216 246.826 157.216Z" fill="#FFF5ED"/>
<path d="M239.783 153.649C239.783 153.649 241.145 157.207 237.951 160.219C236.747 158.702 236.173 157.772 236.173 157.772L237.744 153.442C239.462 152.903 239.783 153.649 239.783 153.649Z" fill="#D2E0FF"/>
<path d="M235.846 160.098C235.846 160.098 242 155.364 238.993 151.577C235.986 147.791 234.754 144.63 230.699 147.492C226.643 150.355 227.036 152.398 227.732 153.906C228.429 155.414 234.169 161.232 235.846 160.098Z" fill="#FFF5ED"/>
<path d="M237.669 143.302C237.689 143.192 237.801 143.048 238.115 142.842C238.115 142.842 237.76 142.828 237.408 143.02C237.074 142.601 236.364 141.93 235.473 142.183C235.473 142.183 236.021 142.166 236.359 142.622C234.915 142.205 232.592 142.64 227.504 146.163C220.799 150.806 225.769 154.034 226.995 154.051C228.222 154.068 229.647 151.245 231.423 150.398C233.198 149.55 234.965 151.852 235.738 151.86C236.511 151.868 235.935 151.395 236.506 150.586C237.077 149.778 237.911 151.045 238.18 152.027C238.45 153.009 240.171 153.513 240.171 153.513C240.171 153.513 240.171 153.513 240.566 151.703C240.962 149.894 239.076 144.295 237.965 143.512C237.867 143.443 237.769 143.372 237.669 143.302Z" fill="#2B478B"/>
<path d="M287.805 230.99C287.805 230.99 289.391 233.397 289.76 234.177C290.128 234.956 289.405 236.616 288.317 236.866C287.358 237.086 287.215 238.787 287.215 238.787H291.864C292.356 238.787 292.8 238.516 292.989 238.098C293.645 236.655 293.795 234.779 293.927 234.151C294.204 232.832 294.754 231.724 294.511 230.38C294.269 229.04 291.979 228.265 287.805 228.278C283.219 228.292 287.805 230.99 287.805 230.99Z" fill="#1D2C51"/>
<path d="M274.169 201.009C271.287 205.227 244.657 201.659 246.482 199.388C246.947 198.811 246.668 198.25 246.763 197.423C247.224 193.503 244.108 187.412 242.813 185.065C242.511 184.521 242.309 184.179 242.27 184.109C241.042 181.921 239.994 179.607 239.19 177.338C237.641 172.984 236.997 168.809 237.738 166.071C237.744 166.056 237.744 166.044 237.75 166.033C242.293 163.887 243.807 156.464 243.807 156.464C243.807 156.464 259.575 158.362 268.46 179.028C268.46 179.028 268.96 180.356 269.635 182.361L269.637 182.361C269.842 182.976 270.065 183.656 270.296 184.381C271.488 188.12 272.604 192.98 273.531 196.583C273.564 196.708 273.596 196.835 273.631 196.965C274.054 198.515 274.647 200.308 274.169 201.009Z" fill="#9DBBF4"/>
<path d="M288.294 232.619C287.623 232.625 285.604 232.909 282.849 233.354C272.873 234.957 260.723 238.261 253.189 238.261C251.539 238.261 250.308 237.09 249.805 235.562V235.559C246.711 226.137 253.861 198.281 253.861 198.281C253.861 198.281 256.426 198.621 261.603 199.002C266.966 199.4 272.652 200.245 273.575 202.046C273.689 202.264 273.73 202.601 273.709 203.046C273.674 203.819 273.451 204.911 273.07 206.239C273.006 206.462 272.937 206.692 272.864 206.93C271.437 211.573 268.367 218.598 264.883 224.865C274.285 225.408 287.076 227.482 287.076 227.482C289.171 229.85 288.294 232.619 288.294 232.619Z" fill="#2B478B"/>
<path d="M273.709 202.647C273.674 203.499 273.451 204.704 273.07 206.168C273.006 206.414 272.937 206.667 272.864 206.93C267.547 206.578 254.866 199.712 255.078 199.658C257.501 198.998 259.668 198.543 261.603 198.258C266.966 198.735 272.652 199.748 273.576 201.91C273.654 202.087 273.698 202.336 273.709 202.647Z" fill="#2C3A64"/>
<path d="M251.354 170.35C251.354 170.35 254.746 193.719 246.748 197.423C247.209 193.503 244.093 187.412 242.798 185.065C244.007 178.726 247.023 172.046 251.354 170.35Z" fill="#E58638"/>
<path d="M246.506 157.114C246.506 157.114 240.268 159.476 240.533 165.229C240.725 169.418 246.702 178.027 246.702 178.027L247.423 177.034C247.423 177.034 241.651 166.15 241.949 164.096C242.331 161.462 245.445 157.119 249.093 158.08L246.506 157.114Z" fill="#2B478B"/>
<path d="M274.165 201.009C271.283 205.227 241.429 202.49 243.254 200.218C243.718 199.641 244.466 197.898 244.562 197.071C244.607 196.682 246.816 196.624 246.797 196.198C246.62 192.331 243.976 187.18 242.809 185.065C242.508 184.521 242.306 184.179 242.267 184.11L243.372 182.592L247.419 177.035C247.419 177.035 249.095 178.422 252.072 179.826C255.973 181.669 262.107 183.54 269.632 182.361L269.634 182.361C269.839 182.976 270.062 183.656 270.293 184.381C271.484 188.12 272.601 192.98 273.527 196.583C273.561 196.708 273.593 196.835 273.628 196.965C274.051 198.515 274.644 200.308 274.165 201.009Z" fill="#2B478B"/>
<path d="M252.06 179.826C252.172 186.758 251.34 193.774 246.766 195.893C245.727 191.458 244.093 187.413 242.798 185.065C242.956 184.243 243.142 183.414 243.36 182.592L247.407 177.035C247.407 177.035 249.084 178.422 252.06 179.826Z" fill="#2C3A64"/>
<path d="M196.285 185.594L221.892 201.528L223.469 198.993L197.863 183.06L196.285 185.594Z" fill="#2B478B"/>
<path d="M192.119 182.09L192.794 182.51L193.319 180.895C193.771 179.506 195.368 178.873 196.554 179.611L205.415 185.125L206.806 182.89L195.585 175.907C194.492 175.227 193.021 175.77 192.545 177.028L191.439 179.953C191.134 180.762 191.418 181.654 192.119 182.09Z" fill="#2B478B"/>
<path d="M198.688 183.604L204.228 187.051L206.198 183.885L200.659 180.438L198.688 183.604Z" fill="#2B478B"/>
<path d="M203.836 184.803C203.956 184.611 203.897 184.357 203.704 184.237C203.511 184.117 203.257 184.176 203.137 184.369C203.017 184.562 203.076 184.815 203.269 184.935C203.462 185.055 203.716 184.996 203.836 184.803Z" fill="#2C3A64"/>
<path d="M201.594 183.412C201.714 183.219 201.655 182.965 201.462 182.845C201.269 182.725 201.015 182.784 200.895 182.977C200.775 183.17 200.834 183.424 201.027 183.544C201.22 183.664 201.474 183.605 201.594 183.412Z" fill="#2C3A64"/>
<path d="M214.611 198.258C216.2 198.258 221.2 196.474 221.466 196.448C223.731 196.23 219.508 194.337 219.508 194.337C219.508 194.337 216.283 193.273 215.686 193.318C215.491 193.334 215.046 193.414 214.696 193.5L215.955 194.283C215.955 194.283 212.384 195.058 212.353 195.747C212.32 196.438 213.83 198.258 214.611 198.258Z" fill="#FFF5ED"/>
<path d="M219.652 195.377C218.867 193.904 219.186 192.689 219.186 192.689C219.186 192.689 231.847 188.127 233.059 187.229C236.921 184.367 241.297 167.44 241.297 167.44C241.297 167.44 243.431 160.659 247.436 160.155C250.916 159.716 253.183 161.571 254.608 163.665C256.307 166.161 256.277 169.449 254.572 171.941C250.745 177.534 241.347 191.463 239.198 193.317C235.892 196.171 221.22 196.884 221.22 196.884C221.22 196.884 220.269 196.533 219.652 195.377Z" fill="#83ABF7"/>
<path d="M210.998 195.099C210.998 195.099 212.084 194.86 212.359 194.393C212.728 193.767 212.866 192.742 211.922 192.616C210.977 192.491 208.72 192.968 208.842 193.37C209.183 194.499 210.396 195.063 210.998 195.099Z" fill="#FFF5ED"/>
<path d="M233.97 106.595C233.97 102.047 237.657 98.3591 242.206 98.3591C246.755 98.3591 250.442 102.047 250.442 106.595C250.442 111.144 246.755 114.832 242.206 114.832C237.657 114.832 233.97 111.144 233.97 106.595Z" fill="#8B9DF4"/>
<path d="M236.384 106.595C236.384 103.379 238.991 100.771 242.208 100.771C245.424 100.771 248.031 103.379 248.031 106.595C248.031 109.812 245.424 112.419 242.208 112.419C238.991 112.419 236.384 109.812 236.384 106.595Z" fill="#D2E0FF"/>
<path d="M240.583 106.595C240.583 105.702 241.307 104.978 242.2 104.978C243.093 104.978 243.818 105.702 243.818 106.595C243.818 107.488 243.093 108.213 242.2 108.213C241.307 108.213 240.583 107.488 240.583 106.595Z" fill="#2B478B"/>
<path d="M242.192 106.727C242.166 106.727 242.139 106.72 242.116 106.704C242.056 106.662 242.042 106.58 242.083 106.52L244.573 102.93C244.614 102.87 244.697 102.855 244.756 102.896C244.816 102.938 244.831 103.02 244.79 103.08L242.3 106.671C242.275 106.708 242.234 106.727 242.192 106.727Z" fill="#2B478B"/>
<path d="M264.039 114.994H262.052V117.695H264.039V114.994Z" fill="#2B478B"/>
<path d="M257.329 109.779C257.329 106.535 259.959 103.906 263.203 103.906C266.447 103.906 269.076 106.535 269.076 109.779C269.076 113.024 266.447 115.653 263.203 115.653C259.959 115.653 257.329 113.024 257.329 109.779Z" fill="#8C9DF4"/>
<path d="M259.06 109.779C259.06 107.485 260.919 105.626 263.213 105.626C265.507 105.626 267.366 107.486 267.366 109.779C267.366 112.073 265.506 113.932 263.213 113.932C260.919 113.932 259.06 112.073 259.06 109.779Z" fill="#D2E0FF"/>
<path d="M262.052 109.779C262.052 109.143 262.568 108.626 263.205 108.626C263.842 108.626 264.359 109.142 264.359 109.779C264.359 110.416 263.842 110.933 263.205 110.933C262.569 110.933 262.052 110.417 262.052 109.779Z" fill="#2B478B"/>
<path d="M263.208 109.874C263.189 109.874 263.171 109.869 263.155 109.857C263.112 109.827 263.101 109.769 263.131 109.726L264.907 107.165C264.936 107.122 264.995 107.112 265.038 107.142C265.08 107.171 265.091 107.23 265.061 107.273L263.286 109.833C263.268 109.86 263.238 109.874 263.208 109.874Z" fill="#2B478B"/>
<path d="M502.355 240H1.64434C1.26481 240 0.954102 239.689 0.954102 239.31V238.73C0.954102 238.35 1.26481 238.04 1.64434 238.04H502.355C502.735 238.04 503.046 238.35 503.046 238.73V239.31C503.046 239.689 502.735 240 502.355 240Z" fill="#233862"/>
<path d="M208.716 176.748C208.577 176.5 208.429 176.261 208.277 176.022C207.616 174.996 206.847 174.065 205.99 173.247C203.955 171.286 201.411 169.93 198.58 169.316C197.493 169.081 196.396 168.968 195.31 168.968C194.888 168.968 194.466 168.986 194.049 169.021C191.557 169.225 189.139 170.043 186.978 171.439C186.147 171.973 185.382 172.578 184.682 173.248C182.468 175.357 180.933 178.079 180.277 181.136C179.411 185.158 180.164 189.276 182.394 192.734C183.055 193.756 183.825 194.686 184.682 195.508C186.717 197.469 189.261 198.83 192.092 199.439C193.183 199.674 194.279 199.791 195.366 199.791C198.297 199.791 201.172 198.948 203.694 197.321C204.524 196.787 205.29 196.182 205.99 195.512C208.203 193.403 209.739 190.677 210.395 187.62C211.199 183.875 210.604 180.049 208.716 176.748ZM207.555 187.011C207.255 188.415 206.72 189.737 205.99 190.929C205.494 191.733 204.911 192.481 204.242 193.155C203.607 193.799 202.893 194.377 202.115 194.881C202.067 194.912 202.019 194.942 201.971 194.968C199.197 196.712 195.914 197.291 192.705 196.599C191.453 196.33 190.265 195.877 189.178 195.26C188.33 194.786 187.543 194.212 186.83 193.546C186.077 192.846 185.408 192.046 184.834 191.159C184.782 191.076 184.729 190.994 184.681 190.911C182.99 188.159 182.433 184.915 183.116 181.749C183.251 181.114 183.434 180.492 183.664 179.897C183.938 179.17 184.281 178.479 184.681 177.827C184.786 177.657 184.895 177.492 185.007 177.327C185.021 177.305 185.034 177.288 185.047 177.266C185.969 175.935 187.151 174.783 188.556 173.878C190.108 172.874 191.822 172.239 193.6 171.991C193.831 171.961 194.066 171.934 194.3 171.913C194.635 171.887 194.97 171.874 195.309 171.874C195.705 171.874 196.105 171.891 196.505 171.93C196.992 171.978 197.479 172.056 197.966 172.161C199.023 172.387 200.032 172.744 200.976 173.218C200.98 173.222 200.988 173.222 200.993 173.226C202.524 174 203.88 175.083 204.976 176.427C205.211 176.705 205.424 176.992 205.624 177.288C205.702 177.388 205.768 177.492 205.837 177.597C205.89 177.679 205.942 177.762 205.989 177.845C206.198 178.179 206.385 178.518 206.555 178.867C207.799 181.384 208.155 184.223 207.555 187.011Z" fill="#2B478B"/>
<path d="M195.426 186.058L182.317 179.183L183.666 176.611L195.274 182.698L206.284 175.59L207.86 178.03L195.426 186.058Z" fill="#2B478B"/>
<path d="M188.553 196.119L186.208 194.404L193.878 183.918L193.572 170.461L196.476 170.394L196.805 184.838L188.553 196.119Z" fill="#2B478B"/>
<path d="M196.489 183.449L194.224 185.267L202.958 196.15L205.223 194.331L196.489 183.449Z" fill="#2B478B"/>
<path d="M192.567 184.378C192.567 182.837 193.816 181.588 195.357 181.588C196.898 181.588 198.147 182.837 198.147 184.378C198.147 185.919 196.898 187.168 195.357 187.168C193.816 187.168 192.567 185.919 192.567 184.378Z" fill="#2A4E96"/>
<path d="M476.209 32.7286H65.1494C66.5394 31.2275 68.0167 29.7823 69.5812 28.3921H474.219C474.988 29.8008 475.648 31.2462 476.209 32.7286Z" fill="#D2E0FF"/>
<path d="M95.3187 27.0708H90.2979V34.7342H95.3187V27.0708Z" fill="#AEC3FF"/>
<path d="M90.2971 44.9517H72.0635V51.9983H90.2971V44.9517Z" fill="#D2E0FF"/>
<g opacity="0.5">
<path d="M99.4143 54.1128H81.1807V61.1595H99.4143V54.1128Z" fill="#D2E0FF"/>
</g>
<g opacity="0.5">
<path d="M111.04 44.9517H92.8057V51.9983H111.04V44.9517Z" fill="#D2E0FF"/>
</g>
<g opacity="0.5">
<path d="M132.93 76.8394H114.696V83.8859H132.93V76.8394Z" fill="#D2E0FF"/>
</g>
<g opacity="0.5">
<path d="M144.571 67.6782H126.337V74.7251H144.571V67.6782Z" fill="#D2E0FF"/>
</g>
<g opacity="0.5">
<path d="M447.149 99.1479H428.915V106.195H447.149V99.1479Z" fill="#D2E0FF"/>
</g>
<g opacity="0.5">
<path d="M458.781 89.9869H440.548V97.0338H458.781V89.9869Z" fill="#D2E0FF"/>
</g>
<g opacity="0.5">
<path d="M467.887 80.8257H449.653V87.8726H467.887V80.8257Z" fill="#D2E0FF"/>
</g>
<g opacity="0.5">
<path d="M438.02 89.9872H419.786V97.0341H438.02V89.9872Z" fill="#D2E0FF"/>
</g>
<g opacity="0.5">
<path d="M218.7 91.0438H200.466V98.0907H218.7V91.0438Z" fill="#D2E0FF"/>
</g>
<g opacity="0.5">
<path d="M209.594 81.8833H191.36V88.9302H209.594V81.8833Z" fill="#D2E0FF"/>
</g>
<g opacity="0.5">
<path d="M266.453 70.3843H248.22V77.431H266.453V70.3843Z" fill="#D2E0FF"/>
</g>
<g opacity="0.5">
<path d="M354.977 70.3843H336.743V77.431H354.977V70.3843Z" fill="#D2E0FF"/>
</g>
<g opacity="0.5">
<path d="M368.36 79.5454H350.126V86.5923H368.36V79.5454Z" fill="#D2E0FF"/>
</g>
<path d="M383.468 238.261H404.948C405.933 238.261 406.731 237.463 406.731 236.478V236.452C406.731 235.467 405.933 234.669 404.948 234.669H383.468C382.483 234.669 381.685 235.467 381.685 236.452V236.478C381.685 237.463 382.483 238.261 383.468 238.261Z" fill="#F3EFEB"/>
<path d="M423.785 238.258H399.839C398.51 238.258 397.423 237.171 397.423 235.842V217.555C397.423 216.227 398.51 215.139 399.839 215.139H423.785C425.114 215.139 426.201 216.227 426.201 217.555V235.842C426.201 237.171 425.114 238.258 423.785 238.258Z" fill="#F3EFEB"/>
<path d="M403.708 215.241C403.708 215.241 409.67 211.444 415.375 211.402C419.091 211.375 423.325 215.08 423.58 215.12C424.226 215.221 421.428 215.255 421.428 215.255C421.428 215.255 417.234 212.779 415.35 212.72C413.077 212.65 407.297 215.458 407.297 215.458L403.708 215.241Z" fill="#2B478B"/>
<path d="M426.566 238.258H402.62C401.291 238.258 400.204 237.171 400.204 235.842V217.555C400.204 216.227 401.291 215.139 402.62 215.139H426.566C427.895 215.139 428.982 216.227 428.982 217.555V235.842C428.982 237.171 427.895 238.258 426.566 238.258Z" fill="#2B478B"/>
</svg>
